<svg id="Layer_1" data-name="Layer 1" xmlns="http://www.w3.org/2000/svg" viewBox="0 0 641.13 143.37">
  <g id="Layer_1-2" data-name="Layer 1">
    <g style="isolation: isolate">
      <path d="M93,309.79q5,17.94,26.92,17.94,14.13,0,21.38-9.54l19.85,11.45Q147,350.07,119.52,350.07q-23.67,0-38-14.32T67.21,299.67q0-21.57,14.13-36t36.27-14.42q21,0,34.65,14.51t13.65,35.89a57.34,57.34,0,0,1-1,10.12ZM92.6,290.7h48.68q-2.1-9.74-8.69-14.51a24.89,24.89,0,0,0-15-4.77q-9.93,0-16.42,5.06T92.6,290.7Z" transform="translate(-67.21 -223.26)" fill="#a3cb8f"/>
      <path d="M227.75,350.07q-21.57,0-36-14.51t-14.41-35.89q0-21.37,14.41-35.89t36-14.51A49.49,49.49,0,0,1,253.14,256a44.4,44.4,0,0,1,17.37,17.95l-21.18,12.41a21.61,21.61,0,0,0-8.69-9.36,25.24,25.24,0,0,0-13.08-3.43q-11.07,0-18.32,7.35T202,299.67q0,11.26,7.26,18.61t18.32,7.35a26.14,26.14,0,0,0,13.27-3.34,21.06,21.06,0,0,0,8.69-9.26l21.38,12.22a47.81,47.81,0,0,1-17.76,18A49,49,0,0,1,227.75,350.07Z" transform="translate(-67.21 -223.26)" fill="#a3cb8f"/>
    </g>
    <g style="isolation: isolate">
      <path d="M488.62,249.28q15.64,0,25.87,10.49t10.21,29v58.6H500.08V291.84q0-9.54-5.16-14.6t-13.74-5.06q-9.56,0-15.27,5.92t-5.73,17.75v51.54H435.55V252h24.63v10.69Q469.15,249.27,488.62,249.28Z" transform="translate(-67.21 -223.26)" fill="#fff"/>
      <path d="M566.51,309.79q4.95,17.94,26.91,17.94,14.13,0,21.38-9.54l19.85,11.45Q620.54,350.07,593,350.07q-23.67,0-38-14.32t-14.32-36.08q0-21.57,14.13-36t36.27-14.41q21,0,34.65,14.5t13.65,35.89a57.34,57.34,0,0,1-1,10.12Zm-.39-19.09H614.8q-2.1-9.74-8.68-14.51a24.92,24.92,0,0,0-15-4.77q-9.93,0-16.42,5.06T566.12,290.7Z" transform="translate(-67.21 -223.26)" fill="#fff"/>
      <path d="M708.34,275.62H686.77v39.7c0,3.31.82,5.73,2.48,7.26s4.07,2.38,7.25,2.58a106,106,0,0,0,11.84-.1v22.33q-25.4,2.87-35.79-4.77t-10.41-27.3v-39.7H645.53V252h16.61V232.67l24.63-7.45V252h21.57Z" transform="translate(-67.21 -223.26)" fill="#fff"/>
    </g>
  </g>
  <g id="Layer_2" data-name="Layer 2">
    <g>
      <path d="M343,345.05c-.29,2.64-.43,3.95-.72,6.59a71.38,71.38,0,0,0,39.6-6.36l1.92,4.76c-14.64,5.62-26.43,7.56-42.08,6.76-.29,2.62-.43,3.93-.72,6.55-8.76-4.84-12.66-7.93-19.23-14.79C330.86,348.58,335.2,347.75,343,345.05Z" transform="translate(-67.21 -223.26)" fill="#a3cb8f" stroke="#a3cb8f" stroke-miterlimit="10" stroke-width="4.1"/>
      <path d="M316.11,270.73l-5.38-3.87a71.36,71.36,0,0,0-13.94,37.61l-5.08-.67c2.3-15.51,6.41-26.73,14.82-40L301.18,260c8.52-5.24,13.13-7.12,22.34-9.47C319,258.44,317.59,262.63,316.11,270.73Z" transform="translate(-67.21 -223.26)" fill="#a3cb8f" stroke="#a3cb8f" stroke-miterlimit="10" stroke-width="4.1"/>
      <circle cx="284.39" cy="16.43" r="16.43" fill="#a3cb8f"/>
      <circle cx="337.27" cy="108.01" r="16.43" fill="#a3cb8f"/>
      <circle cx="231.52" cy="108.01" r="16.43" fill="#a3cb8f"/>
      <path d="M393.67,287.89l6.06-2.69a71.49,71.49,0,0,0-25.39-31l3.15-4.05c12.21,9.83,19.82,19,27,33l6-2.67c.21,10-.49,14.93-3.13,24.06C402.81,296.6,399.91,293.26,393.67,287.89Z" transform="translate(-67.21 -223.26)" fill="#a3cb8f" stroke="#a3cb8f" stroke-miterlimit="10" stroke-width="4.1"/>
    </g>
  </g>
</svg>
