<svg viewBox="0 0 138.62 143.37" xmlns="http://www.w3.org/2000/svg"><g fill="#fff"><path d="m343 345.05c-.29 2.64-.43 3.95-.72 6.59a71.38 71.38 0 0 0 39.6-6.36l1.92 4.76c-14.64 5.62-26.43 7.56-42.08 6.76-.29 2.62-.43 3.93-.72 6.55-8.76-4.84-12.66-7.93-19.23-14.79 9.09.02 13.43-.81 21.23-3.51z" stroke="#fff" stroke-miterlimit="10" stroke-width="4.1" transform="translate(-282.29 -223.26)"/><path d="m316.11 270.73-5.38-3.87a71.36 71.36 0 0 0 -13.94 37.61l-5.08-.67c2.3-15.51 6.41-26.73 14.82-40l-5.35-3.8c8.52-5.24 13.13-7.12 22.34-9.47-4.52 7.91-5.93 12.1-7.41 20.2z" stroke="#fff" stroke-miterlimit="10" stroke-width="4.1" transform="translate(-282.29 -223.26)"/><circle cx="69.31" cy="16.43" r="16.43"/><circle cx="122.19" cy="108.01" r="16.43"/><circle cx="16.43" cy="108.01" r="16.43"/><path d="m393.67 287.89 6.06-2.69a71.49 71.49 0 0 0 -25.39-31l3.15-4.05c12.21 9.83 19.82 19 27 33l6-2.67c.21 10-.49 14.93-3.13 24.06-4.55-7.94-7.45-11.28-13.69-16.65z" stroke="#fff" stroke-miterlimit="10" stroke-width="4.1" transform="translate(-282.29 -223.26)"/></g></svg>