<svg xmlns="http://www.w3.org/2000/svg" width="36.438" height="36.437" viewBox="0 0 36.438 36.437">
  <g id="factory_1_" data-name="factory (1)" transform="translate(0 -0.005)">
    <g id="Group_50" data-name="Group 50" transform="translate(0 0.005)">
      <path id="Path_107" data-name="Path 107" d="M35.837,11.528a1.139,1.139,0,0,0-1.171.057l-9.615,6.408V12.532a1.139,1.139,0,0,0-1.772-.947L12.485,18.779,11.472,4.56h1.054a1.139,1.139,0,0,0,1.139-1.139V1.144A1.139,1.139,0,0,0,12.526,0H1.14A1.139,1.139,0,0,0,0,1.144V3.421A1.139,1.139,0,0,0,1.14,4.56H2.194L0,35.224A1.138,1.138,0,0,0,1.14,36.442H35.3A1.139,1.139,0,0,0,36.438,35.3V12.532A1.14,1.14,0,0,0,35.837,11.528ZM20.5,27.333H15.942V22.778H20.5Zm11.387,0H27.329V22.778h4.555Z" transform="translate(0 -0.005)"/>
    </g>
  </g>
</svg>
