<svg viewBox="0 0 309 98.15" xmlns="http://www.w3.org/2000/svg" xmlns:xlink="http://www.w3.org/1999/xlink"><clipPath id="a" transform="translate(-634.26 -491.31)"><path d="m866.66 521.91h42.39l-9.52-16.77a8 8 0 0 0 -7-4.31h-25.87z"/></clipPath><path d="m0 68.15h309v30h-309z" fill="#5b5b5b"/><g transform="translate(-634.26 -491.31)"><path d="m676.46 525.58h59.92v35.66h-59.92z" fill="#fdc73e"/><path d="m676.46 556.26h59.92v5h-59.92z" fill="#f6a543"/><path d="m702.72 520.09a1.37 1.37 0 0 1 -.37 1h-9.62a1.34 1.34 0 0 1 -.38-1l.91-21.85h8.55z" fill="#d5edfc"/><path d="m702.72 520.09a1.37 1.37 0 0 1 -.37 1h-3.27a1.34 1.34 0 0 0 .38-1l-.91-21.85h3.27z" fill="#b7d4e1"/><path d="m705.44 520.14v5.44h-15.81v-5.44a1.35 1.35 0 0 1 1.35-1.36h13.11a1.35 1.35 0 0 1 1.35 1.36z" fill="#4a935a"/><path d="m705.44 520.14v5.44h-4v-5.44a1.36 1.36 0 0 0 -1.36-1.36h4a1.36 1.36 0 0 1 1.36 1.36z" fill="#0d7232"/><path d="m702.27 496.94h-9.47a1.36 1.36 0 1 0 0 2.72h9.47a1.36 1.36 0 1 0 0-2.72z" fill="#374d5a"/><path d="m723 520.09a1.37 1.37 0 0 1 -.37 1h-9.63a1.37 1.37 0 0 1 -.37-1l.9-21.85h8.56z" fill="#d5edfc"/><path d="m723 520.09a1.37 1.37 0 0 1 -.37 1h-3.27a1.34 1.34 0 0 0 .38-1l-.91-21.85h3.27z" fill="#b7d4e1"/><path d="m725.75 520.14v5.44h-15.82v-5.44a1.36 1.36 0 0 1 1.36-1.36h13.1a1.36 1.36 0 0 1 1.36 1.36z" fill="#4a935a"/><path d="m725.75 520.14v5.44h-4v-5.44a1.36 1.36 0 0 0 -1.36-1.36h4a1.36 1.36 0 0 1 1.36 1.36z" fill="#0d7232"/><path d="m722.58 496.94h-9.47a1.36 1.36 0 0 0 0 2.72h9.47a1.36 1.36 0 0 0 0-2.72z" fill="#374d5a"/><path d="m676.46 525.58h59.92v5h-59.92z" fill="#678fa3"/><path d="m737.75 524.22h-59.93a1.36 1.36 0 0 0 0 2.72h59.93a1.36 1.36 0 1 0 0-2.72z" fill="#374d5a"/><path d="m684.56 537.73h7.15a1.36 1.36 0 1 0 0-2.72h-7.15a1.36 1.36 0 1 0 0 2.72z" fill="#d5edfc"/><path d="m693.07 541.81v19.43h-9.87v-19.43a1.36 1.36 0 0 1 1.36-1.36h7.15a1.36 1.36 0 0 1 1.36 1.36z" fill="#d5edfc"/><path d="m693.07 541.81v5.44h-9.87v-5.44a1.36 1.36 0 0 1 1.36-1.36h7.15a1.36 1.36 0 0 1 1.36 1.36z" fill="#678fa3"/><path d="m697.66 537.73h7.14a1.36 1.36 0 1 0 0-2.72h-7.14a1.36 1.36 0 0 0 0 2.72z" fill="#d5edfc"/><path d="m706.17 541.81v19.43h-9.87v-19.43a1.36 1.36 0 0 1 1.36-1.36h7.14a1.36 1.36 0 0 1 1.37 1.36z" fill="#d5edfc"/><path d="m706.16 541.81v5.44h-9.86v-5.44a1.36 1.36 0 0 1 1.36-1.36h7.14a1.36 1.36 0 0 1 1.36 1.36z" fill="#678fa3"/><path d="m710.76 537.73h7.14a1.36 1.36 0 0 0 0-2.72h-7.14a1.36 1.36 0 1 0 0 2.72z" fill="#d5edfc"/><path d="m719.26 541.81v19.43h-9.86v-19.43a1.36 1.36 0 0 1 1.36-1.36h7.14a1.36 1.36 0 0 1 1.36 1.36z" fill="#d5edfc"/><path d="m719.26 541.81v5.44h-9.86v-5.44a1.36 1.36 0 0 1 1.36-1.36h7.14a1.36 1.36 0 0 1 1.36 1.36z" fill="#678fa3"/><path d="m723.86 537.73h7.14a1.36 1.36 0 1 0 0-2.72h-7.14a1.36 1.36 0 0 0 0 2.72z" fill="#d5edfc"/><path d="m732.36 541.81v19.43h-9.86v-19.43a1.36 1.36 0 0 1 1.36-1.36h7.14a1.36 1.36 0 0 1 1.36 1.36z" fill="#d5edfc"/><path d="m732.36 541.81v5.44h-9.87v-5.44a1.36 1.36 0 0 1 1.36-1.36h7.15a1.36 1.36 0 0 1 1.36 1.36z" fill="#678fa3"/><path d="m683.2 556.26h9.87v5h-9.87z" fill="#b7d4e1"/><path d="m696.3 556.26h9.87v5h-9.87z" fill="#b7d4e1"/><path d="m709.4 556.26h9.86v5h-9.86z" fill="#b7d4e1"/><path d="m722.5 556.26h9.86v5h-9.86z" fill="#b7d4e1"/><path d="m649 510.32h30.2v50.92h-30.2z" fill="#498552"/><path d="m661.38 527a.65.65 0 0 1 -1 .69l-1.64-1-2 3.27a1.29 1.29 0 0 0 1.09 2h2.09a.48.48 0 0 1 .48.48v1.56a.48.48 0 0 1 -.48.48h-2.09a3.86 3.86 0 0 1 -3.27-5.9l2.05-3.27-1.64-1a.65.65 0 0 1 .2-1.18l4.42-1a.65.65 0 0 1 .78.48l1 4.43zm4-7.35 1.66 2.66-1.64 1a.65.65 0 0 0 -.2.89.67.67 0 0 0 .4.28l4.43 1a.64.64 0 0 0 .77-.49l1-4.43a.65.65 0 0 0 -.49-.77.67.67 0 0 0 -.48.08l-1.64 1-1.66-2.66a3.86 3.86 0 0 0 -6.54 0l-.72 1.16a.47.47 0 0 0 .15.66l1.36.85a.49.49 0 0 0 .67-.15l.72-1.16a1.29 1.29 0 0 1 1.78-.4 1.39 1.39 0 0 1 .39.49zm8.6 8.93-1.11-1.77a.48.48 0 0 0 -.66-.16l-1.36.85a.48.48 0 0 0 -.15.67l1.1 1.77a1.29 1.29 0 0 1 -1.09 2h-3.85v-1.94a.64.64 0 0 0 -1.1-.46l-3.21 3.22a.65.65 0 0 0 0 .91l3.21 3.21a.64.64 0 0 0 .91 0 .66.66 0 0 0 .19-.46v-1.93h3.85a3.86 3.86 0 0 0 3.86-3.87 3.93 3.93 0 0 0 -.59-2z" fill="#c1dcaa"/><path d="m649 556.26h30.2v5h-30.2z" fill="#345229"/><path d="m649 510.32h30.2v5h-30.2z" fill="#678fa3"/><path d="m662.64 551v10.27h-2.72v-10.27a1.36 1.36 0 0 1 2.72 0z" fill="#d5edfc"/><path d="m668.2 551v10.27h-2.72v-10.27a1.36 1.36 0 1 1 2.72 0z" fill="#d5edfc"/><path d="m655.76 539.73a1.36 1.36 0 0 0 -1.36 1.36v3.91a1.36 1.36 0 0 0 2.72 0v-3.91a1.36 1.36 0 0 0 -1.36-1.36z" fill="#d5edfc"/><path d="m661.33 539.73a1.36 1.36 0 0 0 -1.36 1.36v3.91a1.36 1.36 0 1 0 2.72 0v-3.91a1.36 1.36 0 0 0 -1.36-1.36z" fill="#d5edfc"/><path d="m666.88 539.73a1.36 1.36 0 0 0 -1.36 1.36v3.91a1.36 1.36 0 1 0 2.72 0v-3.91a1.36 1.36 0 0 0 -1.36-1.36z" fill="#d5edfc"/><path d="m672.44 539.73a1.36 1.36 0 0 0 -1.36 1.36v3.91a1.36 1.36 0 0 0 2.72 0v-3.91a1.36 1.36 0 0 0 -1.36-1.36z" fill="#d5edfc"/><path d="m655.72 549.62a1.36 1.36 0 0 0 -1.36 1.36v3.91a1.36 1.36 0 0 0 2.72 0v-3.89a1.36 1.36 0 0 0 -1.36-1.38z" fill="#d5edfc"/><path d="m672.4 549.62a1.36 1.36 0 0 0 -1.4 1.38v3.91a1.36 1.36 0 0 0 2.72 0v-3.91a1.36 1.36 0 0 0 -1.32-1.38z" fill="#d5edfc"/><path d="m659.92 556.26h2.72v5h-2.72z" fill="#b7d4e1"/><path d="m665.48 556.26h2.72v5h-2.72z" fill="#b7d4e1"/><path d="m737.74 559.88h-90.12a1.36 1.36 0 0 0 0 2.72h90.12a1.36 1.36 0 0 0 0-2.72z" fill="#374d5a"/><path d="m680.54 509h-32.92a1.36 1.36 0 0 0 0 2.72h32.92a1.36 1.36 0 1 0 0-2.72z" fill="#374d5a"/><path d="m931.26 533.47v32.64a4.78 4.78 0 0 1 -4.76 4.76h-163a2.28 2.28 0 0 1 -2.27-2.27v-19.72a19.35 19.35 0 0 1 3.63-11.33 19.59 19.59 0 0 1 16.32-8.39h16.82l18.82-29.69a17.71 17.71 0 0 1 14.73-8.16h61a17.18 17.18 0 0 1 14.74 8.16l18.81 29.24h.45a4.78 4.78 0 0 1 4.71 4.76z" fill="#2ba2dc"/><path d="m866.66 521.91h42.39l-9.52-16.77a8 8 0 0 0 -7-4.31h-25.87z" fill="#e1e6e9"/></g><g clip-path="url(#a)"><path d="m866.33 516h10.74v2.15h-10.74z" fill="#586174" transform="translate(-634.26 -491.31)"/><path d="m890.56 537.6a11.54 11.54 0 0 0 .47-3.35c0-7.52-9-18.26-14-18.26s-14 10.74-14 18.26a11.54 11.54 0 0 0 .47 3.35 3.22 3.22 0 0 0 .6 6.38h25.9a3.22 3.22 0 0 0 .61-6.38z" fill="#5c5c5c" transform="translate(-634.26 -491.31)"/><path d="m893.18 540.77a3.23 3.23 0 0 0 -2.61-3.17 11.44 11.44 0 0 0 .46-3.35c0-7.52-9-18.25-14-18.25v28h12.97a3.22 3.22 0 0 0 3.18-3.23z" fill="#525252" transform="translate(-634.26 -491.31)"/><path d="m876.14 535.33h-4.65l2.33-4 1.86 1.07-.47.81h.93z" fill="#91c256" transform="translate(-634.26 -491.31)"/><path d="m882.65 535.33h-4.65v-2.15h.93l-.47-.81 1.86-1.07z" fill="#5cb24a" transform="translate(-634.26 -491.31)"/><path d="m877.07 525.66-2.32 4 1.86 1.07.46-.8.47.8 1.86-1.07z" fill="#91c256" transform="translate(-634.26 -491.31)"/><path d="m879.4 529.69-2.33-4v4.31l.47.81z" fill="#5cb24a" transform="translate(-634.26 -491.31)"/><path d="m885.66 507.34a9.65 9.65 0 0 0 -6.3 2.34 5.53 5.53 0 0 0 -1.75-1.62l-.54-.31-.54.31a5.42 5.42 0 0 0 -1.75 1.62 9.65 9.65 0 0 0 -6.3-2.34h-1.07v1.07a9.66 9.66 0 1 0 19.32 0v-1.07z" fill="#343434" transform="translate(-634.26 -491.31)"/><path d="m886.73 508.41v-1.07h-1.07a9.65 9.65 0 0 0 -6.3 2.34 5.42 5.42 0 0 0 -1.75-1.62l-.54-.31v10.4a9.74 9.74 0 0 0 9.66-9.74z" fill="#1f1f1f" transform="translate(-634.26 -491.31)"/><path d="m886.33 511h10.74v2.15h-10.74z" fill="#586174" transform="translate(-634.26 -491.31)"/><path d="m910.56 532.6a11.54 11.54 0 0 0 .47-3.35c0-7.52-9-18.26-14-18.26s-14 10.74-14 18.26a11.54 11.54 0 0 0 .47 3.35 3.22 3.22 0 0 0 .6 6.38h25.9a3.22 3.22 0 0 0 .61-6.38z" fill="#5c5c5c" transform="translate(-634.26 -491.31)"/><path d="m913.18 535.77a3.23 3.23 0 0 0 -2.61-3.17 11.44 11.44 0 0 0 .46-3.35c0-7.52-9-18.25-14-18.25v28h12.97a3.22 3.22 0 0 0 3.18-3.23z" fill="#525252" transform="translate(-634.26 -491.31)"/><path d="m896.14 530.33h-4.65l2.33-4 1.86 1.07-.47.81h.93z" fill="#91c256" transform="translate(-634.26 -491.31)"/><path d="m902.65 530.33h-4.65v-2.15h.93l-.47-.81 1.86-1.07z" fill="#5cb24a" transform="translate(-634.26 -491.31)"/><path d="m897.07 520.66-2.32 4 1.86 1.07.46-.8.47.8 1.86-1.07z" fill="#91c256" transform="translate(-634.26 -491.31)"/><path d="m899.4 524.69-2.33-4v4.31l.47.81z" fill="#5cb24a" transform="translate(-634.26 -491.31)"/><path d="m905.66 502.34a9.65 9.65 0 0 0 -6.3 2.34 5.53 5.53 0 0 0 -1.75-1.62l-.54-.31-.54.31a5.42 5.42 0 0 0 -1.75 1.62 9.65 9.65 0 0 0 -6.3-2.34h-1.07v1.07a9.66 9.66 0 1 0 19.32 0v-1.07z" fill="#343434" transform="translate(-634.26 -491.31)"/><path d="m906.73 503.41v-1.07h-1.07a9.65 9.65 0 0 0 -6.3 2.34 5.42 5.42 0 0 0 -1.75-1.62l-.54-.31v10.4a9.74 9.74 0 0 0 9.66-9.74z" fill="#1f1f1f" transform="translate(-634.26 -491.31)"/></g><path d="m859.64 500.83v21.08h-44.64l9.52-16.77a8.05 8.05 0 0 1 7-4.31z" fill="#ebf0f3" transform="translate(-634.26 -491.31)"/><path d="m931.26 562.48v3.4a4.77 4.77 0 0 1 -4.76 4.76h-163a2.27 2.27 0 0 1 -2.27-2.26v-5.9z" fill="#3093ba" transform="translate(-634.26 -491.31)"/><path d="m776.22 537.32a3.26 3.26 0 0 1 3.28 3.24 3 3 0 0 1 -.1.84 14.71 14.71 0 0 1 -4.54 7.94 17 17 0 0 1 -12 5h-1.59v-5.66a19.38 19.38 0 0 1 3.63-11.34z" fill="#e56454" transform="translate(-634.26 -491.31)"/><path d="m771.46 537.32a3.26 3.26 0 0 1 3.28 3.24 3 3 0 0 1 -.1.84 14.71 14.71 0 0 1 -4.54 7.94c-2 2-5.44 3.4-8.84 4.3v-5a19.38 19.38 0 0 1 3.63-11.34z" fill="#fdd562" transform="translate(-634.26 -491.31)"/><circle cx="265.49" cy="79.34" fill="#657a8a" r="15.19"/><circle cx="265.49" cy="79.34" fill="#d6d7db" r="8.16"/><circle cx="158.51" cy="79.34" fill="#657a8a" r="15.19"/><circle cx="158.51" cy="79.34" fill="#d6d7db" r="8.16"/><path d="m931.26 533.47v12.24h-4.53a7.88 7.88 0 0 1 -7.93-7.83v-6.22a3 3 0 0 1 3-2.95h5a4.75 4.75 0 0 1 4.46 4.76z" fill="#e56454" transform="translate(-634.26 -491.31)"/><path d="m931.26 533.47v12.24h-.9a7.88 7.88 0 0 1 -7.94-7.83v-4.88a4.3 4.3 0 0 1 4.3-4.31 4.75 4.75 0 0 1 4.54 4.78z" fill="#fdd562" transform="translate(-634.26 -491.31)"/></svg>