<svg id="Capa_1" enable-background="new 0 0 512 512" height="512" viewBox="0 0 512 512" width="512" xmlns="http://www.w3.org/2000/svg"><g><g><path d="m106 121h150v30h-150z" fill="#576073"/></g><path d="m444.511 422.806c4.306-13.741 6.489-30.063 6.489-46.806 0-105.088-126.123-255-195-255s-195 149.912-195 255c0 16.743 2.183 33.065 6.489 46.806-20.757 3.984-36.489 22.28-36.489 44.194 0 24.814 20.186 45 45 45h180 180c24.814 0 45-20.186 45-45 0-21.914-15.732-40.21-36.489-44.194z" fill="#b8e65c"/><path d="m481 467c0-21.914-15.732-40.21-36.489-44.194 4.306-13.741 6.489-30.063 6.489-46.806 0-105.088-126.123-255-195-255v391h180c24.814 0 45-20.186 45-45z" fill="#8fcc52"/><g><path d="m243 391h-64.93l32.461-56.25 25.987 15-6.504 11.25h12.986z" fill="#8fcc52"/></g><g><path d="m333.93 391h-64.93v-30h12.986l-6.504-11.25 25.987-15z" fill="#59b348"/></g><path d="m256 256-32.476 56.25 25.987 15 6.489-11.25 6.489 11.25 25.987-15z" fill="#8fcc52"/><path d="m288.476 312.25-32.476-56.25v60l6.489 11.25z" fill="#59b348"/><path d="m376 0c-32.607 0-63.706 11.733-88.081 32.754-6.24-9.185-14.531-16.948-24.39-22.676l-7.529-4.365-7.529 4.365c-9.858 5.728-18.149 13.491-24.39 22.676-24.375-21.021-55.474-32.754-88.081-32.754h-15v15c0 74.443 60.557 136 135 136s135-61.557 135-136v-15z" fill="#8fcc52"/><path d="m391 15v-15h-15c-32.607 0-63.706 11.733-88.081 32.754-6.24-9.185-14.531-16.948-24.39-22.676l-7.529-4.365v145.287c74.443 0 135-61.557 135-136z" fill="#59b348"/></g></svg>